<svg width="86" height="61" viewBox="0 0 86 61" fill="none" xmlns="http://www.w3.org/2000/svg">
<mask id="mask0_42_27082" style="mask-type:luminance" maskUnits="userSpaceOnUse" x="0" y="0" width="86" height="61">
<path fill-rule="evenodd" clip-rule="evenodd" d="M75.5291 33.5044C75.5291 30.9962 77.8523 28.977 80.721 28.977C83.5925 28.977 85.9013 31.0063 85.9013 33.5044C85.9013 36.0126 83.5781 38.0293 80.721 38.0293C79.8263 38.0293 78.9721 37.8327 78.239 37.4823L74.5017 42.287C75.3819 42.9651 75.9418 43.9558 75.9418 45.075C75.9418 47.1169 74.0486 48.7731 71.7109 48.7731C69.3762 48.7731 67.4801 47.1169 67.4801 45.075C67.4801 43.676 68.3747 42.4508 69.6965 41.8332L68.6403 39.4989C68.4007 39.5468 68.1467 39.5695 67.8928 39.5695C66.0371 39.5695 64.5422 38.2511 64.5422 36.6403C64.5422 35.0194 66.0515 33.701 67.8928 33.701C68.2016 33.701 68.5075 33.7363 68.7874 33.8069L70.9635 29.5845C70.4296 29.2215 70.0832 28.6619 70.0832 28.0317C70.0832 26.9477 71.0847 26.073 72.3257 26.073C72.874 26.073 73.3675 26.2368 73.7542 26.5267L77.6503 23.9378C77.3704 23.4942 77.2116 22.9698 77.2116 22.4203C77.2116 21.5103 77.6647 20.6834 78.3718 20.1112L75.9706 17.0207C75.5147 17.2072 75.0096 17.3106 74.4757 17.3106C73.2203 17.3106 72.1265 16.7283 71.5233 15.8661L67.8668 17.2072C67.8668 17.2526 67.8812 17.3005 67.8812 17.3358C67.8812 18.0693 67.2665 18.6769 66.4642 18.7928L65.9707 21.896C67.2001 22.2338 68.0804 23.237 68.0804 24.4168C68.0804 25.8738 66.7182 27.0637 65.0501 27.0637C63.9303 27.0637 62.9549 26.5267 62.421 25.7352L58.0833 27.1343C58.0833 27.1469 58.0833 27.1569 58.0833 27.1796C58.0833 27.9611 57.3618 28.5913 56.4672 28.5913C56.3748 28.5913 56.268 28.5812 56.1728 28.5686L53.9708 32.0675C54.2363 32.2793 54.4643 32.5364 54.6115 32.8263L60.698 31.707C60.7933 31.0063 61.4715 30.4592 62.2997 30.4592C63.1944 30.4592 63.9159 31.0894 63.9159 31.8709C63.9159 32.5944 63.2896 33.1893 62.4873 33.27L60.698 40.7367C62.5941 41.2736 63.9563 42.8239 63.9563 44.6566C63.9563 46.9304 61.8466 48.7857 59.2291 48.7857C59.1511 48.7857 59.0703 48.7857 58.9895 48.7857L58.2825 52.6123C58.9231 52.8694 59.3762 53.4391 59.3762 54.1046C59.3762 54.8508 58.8164 55.4709 58.0429 55.6802L58.1093 58.5741C58.6028 58.7354 58.9635 59.169 58.9635 59.658C58.9635 60.2983 58.3633 60.8252 57.6273 60.8252C56.8943 60.8252 56.294 60.2983 56.294 59.658C56.294 59.5421 56.32 59.4236 56.3604 59.3076L54.0227 57.6036C53.7313 57.78 53.3705 57.8859 52.9694 57.8859C51.9419 57.8859 51.1137 57.1624 51.1137 56.2625C51.1137 55.6222 51.5408 55.0726 52.1555 54.8054L51.7544 52.8694C51.7284 52.8694 51.688 52.8694 51.662 52.8694C49.7919 52.8694 48.271 51.5384 48.271 49.9049C48.271 48.2714 49.7919 46.943 51.662 46.943C52.5567 46.943 53.3561 47.2455 53.9564 47.7345L55.2522 46.8371C54.7846 46.1968 54.5191 45.4481 54.5191 44.6314C54.5191 43.8499 54.7702 43.1163 55.2118 42.4861L51.9015 40.2703C51.6476 40.4216 51.3417 40.5148 51.0069 40.5148C50.6461 40.5148 50.3143 40.409 50.0459 40.235L47.9506 41.5055C48.3229 42.1004 48.5249 42.7785 48.5249 43.502C48.5249 45.8111 46.3893 47.6765 43.7458 47.6765C41.5033 47.6765 39.6332 46.3354 39.1137 44.5154L35.5351 44.9465C35.4947 46.4287 34.1066 47.6185 32.3981 47.6185C30.6636 47.6185 29.261 46.3934 29.261 44.8784C29.261 43.3609 30.6636 42.1357 32.3981 42.1357C32.7184 42.1357 33.0272 42.1836 33.3071 42.2517L37.1253 35.4984C36.1498 34.9261 35.4832 33.9934 35.362 32.9196L32.2134 32.8263C31.9854 33.3405 31.4255 33.701 30.7559 33.701C30.5828 33.701 30.424 33.6783 30.2624 33.633L27.7401 36.4891C28.528 37.1672 29.007 38.0999 29.007 39.1385C29.007 41.1904 27.0994 42.8592 24.7502 42.8592C22.7733 42.8592 21.1052 41.6694 20.6261 40.0712L17.7026 40.409C17.6478 41.8685 16.2741 43.0457 14.5915 43.0457C12.8686 43.0457 11.4804 41.8332 11.4804 40.3283C11.4804 38.904 12.7358 37.7369 14.3376 37.6209L14.6175 34.6362C14.0576 34.4245 13.6709 33.9355 13.6709 33.3632C13.6709 32.6045 14.378 31.9743 15.2582 31.9743C15.4602 31.9743 15.6334 32.0095 15.8065 32.0574L21.7719 25.6419C21.6276 25.4302 21.5323 25.173 21.5323 24.9058C21.5323 24.5328 21.7055 24.195 21.9739 23.9504L21.0533 22.385C20.5857 22.5388 20.0922 22.6194 19.5699 22.6194C18.8224 22.6194 18.1153 22.4455 17.515 22.1531L13.9249 26.504C14.2972 26.8645 14.5252 27.3561 14.5252 27.893C14.5252 29.035 13.4573 29.9677 12.15 29.9677C11.8816 29.9677 11.6132 29.9349 11.3737 29.8517L7.62188 35.1959C8.47902 35.8009 9.01293 36.7235 9.01293 37.7621C9.01293 39.5922 7.31597 41.0745 5.22075 41.0745C3.12552 41.0745 1.42856 39.5922 1.42856 37.7621C1.42856 36.2672 2.56275 35.0093 4.11253 34.5884L3.81816 33.0128C3.79218 33.0128 3.77775 33.0128 3.75178 33.0128C1.80374 33.0128 0.227993 31.6365 0.227993 29.9349C0.227993 28.2434 1.78931 26.8645 3.72581 26.8544L3.93937 25.4881C1.68253 25.0117 0 23.227 0 21.1019C0 18.6189 2.31167 16.5997 5.15437 16.5997C7.5151 16.5997 9.51798 17.9887 10.1183 19.8894L15.313 19.0852C15.313 19.0146 15.313 18.9567 15.313 18.8861C15.313 18.2559 15.4977 17.661 15.8065 17.1366L11.9739 14.7923C11.5468 15.1426 10.9725 15.3519 10.3463 15.3519C9.02447 15.3519 7.94223 14.4066 7.94223 13.252C7.94223 12.0975 9.02447 11.1522 10.3463 11.1522C11.668 11.1522 12.7503 12.0975 12.7503 13.252C12.7503 13.5444 12.6839 13.8116 12.5627 14.0562L16.3924 16.4005C16.9407 15.8661 17.6738 15.4678 18.4905 15.2813L18.4761 11.8857C17.0331 11.6765 15.9393 10.5925 15.9393 9.27415C15.9393 7.81458 17.3015 6.62475 18.9696 6.62475C19.9566 6.62475 20.8253 7.03312 21.3736 7.66333L26.2192 5.44752C26.098 5.13242 26.0316 4.80471 26.0316 4.45683C26.0316 2.78804 27.5814 1.42175 29.5034 1.42175C31.4111 1.42175 32.9724 2.77544 32.9724 4.45683C32.9724 5.56348 32.2913 6.54408 31.2639 7.06842L32.8656 10.522C33.1196 10.4741 33.3735 10.4413 33.6535 10.4413C34.2797 10.4413 34.8829 10.5925 35.3879 10.8598L39.0185 7.01044C38.1931 6.26427 37.6708 5.24838 37.6708 4.12913C37.6708 1.85533 39.7804 0 42.398 0C45.0012 0 47.1224 1.84273 47.1224 4.12913C47.1224 5.14502 46.6952 6.07773 46.0026 6.7886L49.6043 10.101C49.8179 10.0077 50.0603 9.96233 50.3143 9.96233C50.3806 9.96233 50.447 9.96233 50.499 9.97494L52.421 6.34494C51.636 5.8685 51.1137 5.07444 51.1137 4.16442C51.1137 2.70485 52.4759 1.51502 54.144 1.51502C55.812 1.51502 57.1742 2.70485 57.1742 4.16442C57.1742 4.4896 57.1079 4.80471 56.9866 5.08452L60.0458 6.63735C60.8048 5.76263 62.0198 5.1904 63.3676 5.1904C65.6763 5.1904 67.5465 6.8239 67.5465 8.84308C67.5465 9.33212 67.4397 9.79848 67.2405 10.2195L71.7513 12.4227C72.3776 11.7118 73.3675 11.2454 74.4873 11.2454C76.3978 11.2454 77.9447 12.5991 77.9447 14.2679C77.9447 15.1426 77.5175 15.9342 76.8364 16.4837L79.2405 19.5743C79.708 19.3751 80.2419 19.2592 80.8018 19.2592C82.7787 19.2592 84.3804 20.6582 84.3804 22.385C84.3804 24.1118 82.7787 25.5134 80.8018 25.5134C79.8263 25.5134 78.9346 25.173 78.2939 24.6134L74.3949 27.2048C74.5161 27.4494 74.5825 27.7166 74.5825 27.9964C74.5825 29.0829 73.5811 29.9576 72.3401 29.9576C72.1929 29.9576 72.0457 29.945 71.913 29.9223L69.7369 34.1447C70.6576 34.669 71.2723 35.579 71.2723 36.6075C71.2723 37.6789 70.6027 38.6242 69.6157 39.1385L70.6691 41.4702C71.0183 41.3896 71.3646 41.3543 71.7369 41.3543C72.4324 41.3543 73.0991 41.5055 73.6734 41.7626L77.4108 36.9554C76.2766 36.1286 75.5551 34.8808 75.5551 33.4792L75.5291 33.5044ZM19.5179 15.188L19.5035 11.8983C20.932 11.6891 22.0143 10.5925 22.0143 9.28423C22.0143 9.00442 21.9595 8.7246 21.8671 8.47L26.7127 6.25167C27.3389 7.01044 28.3663 7.49948 29.515 7.49948C29.7949 7.49948 30.0633 7.47679 30.3288 7.41881L31.9305 10.8724C30.9435 11.3841 30.2769 12.3294 30.2769 13.4159C30.2769 14.7217 31.2523 15.8308 32.6001 16.2266L31.8786 19.96C31.7862 19.96 31.691 19.9474 31.5842 19.9474C28.9407 19.9474 26.805 21.8153 26.805 24.1244C26.805 26.4335 28.9407 28.3014 31.5842 28.3014C34.095 28.3014 36.1498 26.6099 36.349 24.4622L39.1137 24.3916C39.3417 24.9184 39.9132 25.2915 40.5943 25.2915C41.0762 25.2915 41.5033 25.105 41.7977 24.8L45.4138 26.0604C45.3734 26.2469 45.3475 26.4335 45.3475 26.62C45.3475 28.0896 46.7212 29.2921 48.4037 29.2921C50.0863 29.2921 51.46 28.0896 51.46 26.62C51.46 25.9797 51.1945 25.3848 50.7673 24.9184L54.597 21.0439C55.2666 21.4296 56.066 21.6615 56.9203 21.6615C59.2291 21.6615 61.0992 20.0305 61.0992 18.0114C61.0992 15.9922 59.2291 14.3612 56.9203 14.3612C56.0545 14.3612 55.2377 14.5931 54.5711 14.9889L51.714 12.1328C51.8611 11.921 51.9419 11.6664 51.9419 11.3967C51.9419 10.9883 51.7428 10.6152 51.4225 10.348L53.3301 6.71802C53.5841 6.77852 53.8496 6.81129 54.118 6.81129C55.053 6.81129 55.8929 6.43821 56.4412 5.8559L59.4975 7.40621C59.2839 7.84987 59.1627 8.32883 59.1627 8.84308C59.1627 10.8598 61.0328 12.4932 63.3416 12.4932C63.5696 12.4932 63.7947 12.4806 64.0082 12.4479L65.2117 16.0754C64.7557 16.3426 64.4642 16.7862 64.4642 17.3005C64.4642 17.8954 64.8625 18.397 65.4253 18.6416L64.9289 21.7447C63.3012 21.7901 61.9938 22.9572 61.9938 24.3916C61.9938 24.5554 62.0054 24.7193 62.0458 24.8831L57.7081 26.2822C57.4138 25.9545 56.9607 25.7579 56.4527 25.7579C55.5581 25.7579 54.8395 26.3881 54.8395 27.1695C54.8395 27.5426 54.9982 27.8678 55.2666 28.1249L53.0617 31.6264C52.8366 31.5659 52.5971 31.5331 52.3546 31.5331C50.9953 31.5331 49.8987 32.4885 49.8987 33.6783C49.8987 34.8682 50.9953 35.8261 52.3546 35.8261C53.7168 35.8261 54.8106 34.8682 54.8106 33.6783L60.9 32.5465C61.0443 32.7557 61.2319 32.9322 61.4715 33.0481L59.685 40.5148C59.5379 40.5022 59.3762 40.4921 59.2175 40.4921C57.8813 40.4921 56.6663 40.9812 55.8005 41.7626L52.4903 39.5468C52.5422 39.4057 52.5826 39.2418 52.5826 39.0906C52.5826 38.3091 51.8611 37.6789 50.9665 37.6789C50.0718 37.6789 49.3532 38.3091 49.3532 39.0906C49.3532 39.2317 49.3792 39.3603 49.4196 39.4889L47.3244 40.7594C46.4413 39.872 45.1483 39.3124 43.7053 39.3124C41.0618 39.3124 38.9262 41.1803 38.9262 43.4894C38.9262 43.5348 38.9262 43.5827 38.9262 43.618L35.3504 44.049C35.1484 43.4768 34.7213 42.9752 34.1729 42.6374L37.9911 35.8841C38.3922 36 38.8338 36.0706 39.2869 36.0706C41.4889 36.0706 43.2782 34.5077 43.2782 32.5818C43.2782 30.6559 41.4889 29.1055 39.2869 29.1055C37.31 29.1055 35.6708 30.366 35.3504 32.0221L32.1989 31.9289C31.9998 31.3693 31.4111 30.971 30.7155 30.971C29.8613 30.971 29.1542 31.5785 29.1542 32.3372C29.1542 32.6171 29.2495 32.8616 29.4082 33.0834L26.8858 35.942C26.2451 35.6043 25.4977 35.4177 24.7098 35.4177C22.3606 35.4177 20.453 37.084 20.453 39.1385C20.453 39.1485 20.453 39.1738 20.453 39.1838L17.5295 39.5241C17.2091 38.6242 16.3664 37.9133 15.313 37.6789L15.593 34.6942C16.2856 34.5405 16.7935 33.9934 16.7935 33.3506C16.7935 33.0834 16.7012 32.8263 16.554 32.6171L22.5193 26.2015C22.6954 26.2595 22.8801 26.2822 23.0677 26.2822C23.9479 26.2822 24.6579 25.6646 24.6579 24.8932C24.6579 24.137 23.9479 23.5068 23.0677 23.5068C22.9869 23.5068 22.9089 23.5068 22.8397 23.5169L21.9191 21.9539C23.0417 21.2884 23.7892 20.1591 23.7892 18.8735C23.7892 16.8215 21.8786 15.1527 19.5295 15.1527C19.5035 15.1527 19.4919 15.1527 19.4775 15.1527L19.5179 15.188ZM32.88 20.1112L33.6015 16.3779C33.6131 16.3779 33.639 16.3779 33.6535 16.3779C34.8829 16.3779 35.9507 15.8056 36.551 14.9561L41.4889 16.7409C41.4225 16.9854 41.3821 17.2299 41.3821 17.4971C41.3821 19.2012 42.9579 20.5776 44.9059 20.5776C46.8568 20.5776 48.4297 19.2012 48.4297 17.4971C48.4297 16.6703 48.0574 15.9241 47.4571 15.3645L49.7659 12.763C49.9391 12.821 50.1267 12.8436 50.3143 12.8436C50.5394 12.8436 50.7529 12.8084 50.9549 12.7277L53.8092 15.5838C53.1425 16.2266 52.7414 17.0887 52.7414 18.024C52.7414 18.9668 53.1569 19.8188 53.8236 20.4717L49.9939 24.3462C49.5264 24.1017 48.9925 23.9605 48.4037 23.9605C47.2955 23.9605 46.3345 24.4748 45.789 25.2436L42.17 23.9832C42.17 23.9605 42.17 23.9378 42.17 23.9151C42.17 23.1438 41.4629 22.5262 40.5827 22.5262C39.8756 22.5262 39.2725 22.9345 39.0733 23.5068L36.3115 23.5748C36.0575 21.9086 34.6809 20.565 32.8656 20.1112H32.88ZM45.2551 7.41881L48.8568 10.7312C48.7385 10.9303 48.6577 11.1648 48.6577 11.4093C48.6577 11.6992 48.7645 11.979 48.9376 12.2134L46.6288 14.8149C46.1209 14.5578 45.5206 14.4192 44.8944 14.4192C43.613 14.4192 42.4903 15.0242 41.8756 15.9115L36.9377 14.1141C37.0041 13.8923 37.0301 13.6478 37.0301 13.4033C37.0301 12.6445 36.6982 11.9563 36.1643 11.432L39.7948 7.58267C40.5423 8.01373 41.4225 8.25825 42.3836 8.25825C43.4658 8.25825 44.4528 7.94315 45.2551 7.40621V7.41881ZM66.1987 15.8535L64.9981 12.2134C65.6908 11.9563 66.2795 11.5379 66.7182 11.011L71.2319 13.2167C71.0847 13.5444 71.0039 13.9049 71.0039 14.278C71.0039 14.5351 71.0443 14.7796 71.1106 15.0242L67.4541 16.3652C67.1453 16.0527 66.7066 15.8535 66.1987 15.8409V15.8535ZM58.0025 48.6218L57.2954 52.4485C56.3604 52.5417 55.6273 53.2425 55.6273 54.082C55.6273 54.8508 56.2276 55.4936 57.0415 55.6802L57.1079 58.5741C57.0819 58.5842 57.0415 58.5968 57.0155 58.6069L54.6779 56.9053C54.7846 56.7061 54.8395 56.4843 54.8395 56.2524C54.8395 55.4104 54.1035 54.7223 53.1685 54.6416L52.7702 52.7056C54.1035 52.3098 55.0646 51.2006 55.0646 49.9049C55.0646 49.368 54.9058 48.8664 54.6115 48.4353L55.9073 47.5379C56.4816 48.0395 57.2002 48.4227 58.0141 48.6118L58.0025 48.6218ZM16.6868 21.6388L13.0966 25.9898C12.8022 25.8864 12.4819 25.8159 12.15 25.8159C10.8398 25.8159 9.77194 26.7486 9.77194 27.893C9.77194 28.4753 10.0519 29.0123 10.5079 29.3854L6.75609 34.7295C6.28856 34.5405 5.76908 34.4472 5.22075 34.4472C5.18034 34.4472 5.15437 34.4472 5.11396 34.4472L4.81959 32.8742C6.24816 32.4759 7.27557 31.3113 7.27557 29.945C7.27557 28.5459 6.20775 27.3662 4.73879 26.9931L4.95235 25.6293C5.02161 25.6293 5.08799 25.6293 5.16591 25.6293C8.01149 25.6293 10.3203 23.6101 10.3203 21.1271C10.3203 21.0086 10.3203 20.9053 10.3059 20.7868L15.4977 19.9953C15.7257 20.6355 16.1413 21.2078 16.6868 21.6514V21.6388ZM20.5857 30.7164C20.5857 29.2568 21.9479 28.067 23.616 28.067C25.2841 28.067 26.6463 29.2568 26.6463 30.7164C26.6463 32.1734 25.2841 33.3632 23.616 33.3632C21.9479 33.3632 20.5857 32.1734 20.5857 30.7164ZM23.8296 12.9495C23.8296 12.1781 24.5366 11.5605 25.4169 11.5605C26.2971 11.5605 27.007 12.1781 27.007 12.9495C27.007 13.7058 26.2971 14.336 25.4169 14.336C24.5511 14.336 23.8296 13.7184 23.8296 12.9495Z" fill="white"/>
</mask>
<g mask="url(#mask0_42_27082)">
<path d="M0.0142822 0V60.8252H85.9012V0H0.0142822Z" fill="url(#paint0_linear_42_27082)"/>
</g>
<defs>
<linearGradient id="paint0_linear_42_27082" x1="53.3901" y1="-0.169038" x2="53.0725" y2="61.0996" gradientUnits="userSpaceOnUse">
<stop stop-color="#48CA7D"/>
<stop offset="0.00726688" stop-color="#48CA7D"/>
<stop offset="0.0625" stop-color="#48CA7D"/>
<stop offset="0.09375" stop-color="#48CA7D"/>
<stop offset="0.109375" stop-color="#48CA7D"/>
<stop offset="0.117188" stop-color="#48CA7D"/>
<stop offset="0.121094" stop-color="#48CA7E"/>
<stop offset="0.125" stop-color="#48CA7F"/>
<stop offset="0.128906" stop-color="#48CA7F"/>
<stop offset="0.132812" stop-color="#48C980"/>
<stop offset="0.136719" stop-color="#47C981"/>
<stop offset="0.140625" stop-color="#47C981"/>
<stop offset="0.144531" stop-color="#47C982"/>
<stop offset="0.148438" stop-color="#47C982"/>
<stop offset="0.152344" stop-color="#47C983"/>
<stop offset="0.15625" stop-color="#47C984"/>
<stop offset="0.160156" stop-color="#47C984"/>
<stop offset="0.164063" stop-color="#47C985"/>
<stop offset="0.167969" stop-color="#47C986"/>
<stop offset="0.171875" stop-color="#47C986"/>
<stop offset="0.175781" stop-color="#47C887"/>
<stop offset="0.179688" stop-color="#47C887"/>
<stop offset="0.183594" stop-color="#47C888"/>
<stop offset="0.1875" stop-color="#46C889"/>
<stop offset="0.191406" stop-color="#46C889"/>
<stop offset="0.195313" stop-color="#46C88A"/>
<stop offset="0.199219" stop-color="#46C88A"/>
<stop offset="0.203125" stop-color="#46C88B"/>
<stop offset="0.207031" stop-color="#46C88C"/>
<stop offset="0.210938" stop-color="#46C88C"/>
<stop offset="0.214844" stop-color="#46C88D"/>
<stop offset="0.21875" stop-color="#46C78D"/>
<stop offset="0.222656" stop-color="#46C78E"/>
<stop offset="0.226563" stop-color="#46C78F"/>
<stop offset="0.230469" stop-color="#46C78F"/>
<stop offset="0.234375" stop-color="#46C790"/>
<stop offset="0.238281" stop-color="#46C790"/>
<stop offset="0.242188" stop-color="#45C791"/>
<stop offset="0.246094" stop-color="#45C792"/>
<stop offset="0.25" stop-color="#45C792"/>
<stop offset="0.253906" stop-color="#45C793"/>
<stop offset="0.257813" stop-color="#45C794"/>
<stop offset="0.261719" stop-color="#45C694"/>
<stop offset="0.265625" stop-color="#45C695"/>
<stop offset="0.269531" stop-color="#45C695"/>
<stop offset="0.273438" stop-color="#45C696"/>
<stop offset="0.277344" stop-color="#45C697"/>
<stop offset="0.28125" stop-color="#45C697"/>
<stop offset="0.285156" stop-color="#45C698"/>
<stop offset="0.289063" stop-color="#45C698"/>
<stop offset="0.292969" stop-color="#44C699"/>
<stop offset="0.296875" stop-color="#44C69A"/>
<stop offset="0.300781" stop-color="#44C59A"/>
<stop offset="0.304688" stop-color="#44C59B"/>
<stop offset="0.308594" stop-color="#44C59B"/>
<stop offset="0.3125" stop-color="#44C59C"/>
<stop offset="0.316406" stop-color="#44C59D"/>
<stop offset="0.320312" stop-color="#44C59D"/>
<stop offset="0.324219" stop-color="#44C59E"/>
<stop offset="0.328125" stop-color="#44C59F"/>
<stop offset="0.332031" stop-color="#44C59F"/>
<stop offset="0.335938" stop-color="#44C5A0"/>
<stop offset="0.339844" stop-color="#44C5A0"/>
<stop offset="0.34375" stop-color="#44C4A1"/>
<stop offset="0.347656" stop-color="#43C4A2"/>
<stop offset="0.351562" stop-color="#43C4A2"/>
<stop offset="0.355469" stop-color="#43C4A3"/>
<stop offset="0.359375" stop-color="#43C4A3"/>
<stop offset="0.363281" stop-color="#43C4A4"/>
<stop offset="0.367188" stop-color="#43C4A5"/>
<stop offset="0.371094" stop-color="#43C4A5"/>
<stop offset="0.375" stop-color="#43C4A6"/>
<stop offset="0.378906" stop-color="#43C4A6"/>
<stop offset="0.382812" stop-color="#43C4A7"/>
<stop offset="0.386719" stop-color="#43C3A8"/>
<stop offset="0.390625" stop-color="#43C3A8"/>
<stop offset="0.394531" stop-color="#43C3A9"/>
<stop offset="0.398438" stop-color="#42C3A9"/>
<stop offset="0.402344" stop-color="#42C3AA"/>
<stop offset="0.40625" stop-color="#42C3AB"/>
<stop offset="0.410156" stop-color="#42C3AB"/>
<stop offset="0.414062" stop-color="#42C3AC"/>
<stop offset="0.417969" stop-color="#42C3AC"/>
<stop offset="0.421875" stop-color="#42C3AD"/>
<stop offset="0.425781" stop-color="#42C2AE"/>
<stop offset="0.429688" stop-color="#42C2AE"/>
<stop offset="0.433594" stop-color="#42C2AF"/>
<stop offset="0.4375" stop-color="#42C2B0"/>
<stop offset="0.441406" stop-color="#42C2B0"/>
<stop offset="0.445312" stop-color="#42C2B1"/>
<stop offset="0.449219" stop-color="#42C2B1"/>
<stop offset="0.453125" stop-color="#41C2B2"/>
<stop offset="0.457031" stop-color="#41C2B3"/>
<stop offset="0.460938" stop-color="#41C2B3"/>
<stop offset="0.464844" stop-color="#41C2B4"/>
<stop offset="0.46875" stop-color="#41C1B4"/>
<stop offset="0.472656" stop-color="#41C1B5"/>
<stop offset="0.476563" stop-color="#41C1B6"/>
<stop offset="0.480469" stop-color="#41C1B6"/>
<stop offset="0.484375" stop-color="#41C1B7"/>
<stop offset="0.488281" stop-color="#41C1B7"/>
<stop offset="0.492188" stop-color="#41C1B8"/>
<stop offset="0.496094" stop-color="#41C1B9"/>
<stop offset="0.5" stop-color="#41C1B9"/>
<stop offset="0.503906" stop-color="#40C1BA"/>
<stop offset="0.507812" stop-color="#40C1BB"/>
<stop offset="0.511719" stop-color="#40C0BB"/>
<stop offset="0.515625" stop-color="#40C0BC"/>
<stop offset="0.519531" stop-color="#40C0BC"/>
<stop offset="0.523438" stop-color="#40C0BD"/>
<stop offset="0.527344" stop-color="#40C0BE"/>
<stop offset="0.53125" stop-color="#40C0BE"/>
<stop offset="0.535156" stop-color="#40C0BF"/>
<stop offset="0.539062" stop-color="#40C0BF"/>
<stop offset="0.542969" stop-color="#40C0C0"/>
<stop offset="0.546875" stop-color="#40C0C1"/>
<stop offset="0.550781" stop-color="#40C0C1"/>
<stop offset="0.554688" stop-color="#40BFC2"/>
<stop offset="0.558594" stop-color="#3FBFC2"/>
<stop offset="0.5625" stop-color="#3FBFC3"/>
<stop offset="0.566406" stop-color="#3FBFC4"/>
<stop offset="0.570312" stop-color="#3FBFC4"/>
<stop offset="0.574219" stop-color="#3FBFC5"/>
<stop offset="0.578125" stop-color="#3FBFC5"/>
<stop offset="0.582031" stop-color="#3FBFC6"/>
<stop offset="0.585938" stop-color="#3FBFC7"/>
<stop offset="0.589844" stop-color="#3FBFC7"/>
<stop offset="0.59375" stop-color="#3FBEC8"/>
<stop offset="0.597656" stop-color="#3FBEC9"/>
<stop offset="0.601562" stop-color="#3FBEC9"/>
<stop offset="0.605469" stop-color="#3FBECA"/>
<stop offset="0.609375" stop-color="#3FBECA"/>
<stop offset="0.613281" stop-color="#3EBECB"/>
<stop offset="0.617188" stop-color="#3EBECC"/>
<stop offset="0.621094" stop-color="#3EBECC"/>
<stop offset="0.625" stop-color="#3EBECD"/>
<stop offset="0.628906" stop-color="#3EBECD"/>
<stop offset="0.632812" stop-color="#3EBECE"/>
<stop offset="0.636719" stop-color="#3EBDCF"/>
<stop offset="0.640625" stop-color="#3EBDCF"/>
<stop offset="0.644531" stop-color="#3EBDD0"/>
<stop offset="0.648438" stop-color="#3EBDD0"/>
<stop offset="0.652344" stop-color="#3EBDD1"/>
<stop offset="0.65625" stop-color="#3EBDD2"/>
<stop offset="0.660156" stop-color="#3EBDD2"/>
<stop offset="0.664062" stop-color="#3DBDD3"/>
<stop offset="0.667969" stop-color="#3DBDD3"/>
<stop offset="0.671875" stop-color="#3DBDD4"/>
<stop offset="0.675781" stop-color="#3DBDD5"/>
<stop offset="0.679688" stop-color="#3DBCD5"/>
<stop offset="0.683594" stop-color="#3DBCD6"/>
<stop offset="0.6875" stop-color="#3DBCD7"/>
<stop offset="0.691406" stop-color="#3DBCD7"/>
<stop offset="0.695312" stop-color="#3DBCD8"/>
<stop offset="0.699219" stop-color="#3DBCD8"/>
<stop offset="0.703125" stop-color="#3DBCD9"/>
<stop offset="0.707031" stop-color="#3DBCDA"/>
<stop offset="0.710938" stop-color="#3DBCDA"/>
<stop offset="0.714844" stop-color="#3DBCDB"/>
<stop offset="0.71875" stop-color="#3CBCDB"/>
<stop offset="0.722656" stop-color="#3CBBDC"/>
<stop offset="0.726562" stop-color="#3CBBDD"/>
<stop offset="0.730469" stop-color="#3CBBDD"/>
<stop offset="0.734375" stop-color="#3CBBDE"/>
<stop offset="0.738281" stop-color="#3CBBDE"/>
<stop offset="0.742188" stop-color="#3CBBDF"/>
<stop offset="0.746094" stop-color="#3CBBE0"/>
<stop offset="0.75" stop-color="#3CBBE0"/>
<stop offset="0.753906" stop-color="#3CBBE1"/>
<stop offset="0.757812" stop-color="#3CBBE1"/>
<stop offset="0.761719" stop-color="#3CBAE2"/>
<stop offset="0.765625" stop-color="#3CBAE3"/>
<stop offset="0.769531" stop-color="#3BBAE3"/>
<stop offset="0.773438" stop-color="#3BBAE4"/>
<stop offset="0.777344" stop-color="#3BBAE5"/>
<stop offset="0.78125" stop-color="#3BBAE5"/>
<stop offset="0.785156" stop-color="#3BBAE6"/>
<stop offset="0.789062" stop-color="#3BBAE6"/>
<stop offset="0.792969" stop-color="#3BBAE7"/>
<stop offset="0.796875" stop-color="#3BBAE8"/>
<stop offset="0.800781" stop-color="#3BBAE8"/>
<stop offset="0.804688" stop-color="#3BB9E9"/>
<stop offset="0.808594" stop-color="#3BB9E9"/>
<stop offset="0.8125" stop-color="#3BB9EA"/>
<stop offset="0.816406" stop-color="#3BB9EB"/>
<stop offset="0.820312" stop-color="#3BB9EB"/>
<stop offset="0.824219" stop-color="#3AB9EC"/>
<stop offset="0.828125" stop-color="#3AB9EC"/>
<stop offset="0.832031" stop-color="#3AB9ED"/>
<stop offset="0.835938" stop-color="#3AB9EE"/>
<stop offset="0.839844" stop-color="#3AB9EE"/>
<stop offset="0.84375" stop-color="#3AB9EF"/>
<stop offset="0.847656" stop-color="#3AB8EF"/>
<stop offset="0.851562" stop-color="#3AB8F0"/>
<stop offset="0.855469" stop-color="#3AB8F1"/>
<stop offset="0.859375" stop-color="#3AB8F1"/>
<stop offset="0.863281" stop-color="#3AB8F2"/>
<stop offset="0.867188" stop-color="#3AB8F3"/>
<stop offset="0.871094" stop-color="#3AB8F3"/>
<stop offset="0.875" stop-color="#39B8F4"/>
<stop offset="0.878906" stop-color="#39B8F4"/>
<stop offset="0.882812" stop-color="#39B8F5"/>
<stop offset="0.886719" stop-color="#39B8F6"/>
<stop offset="0.890625" stop-color="#39B7F6"/>
<stop offset="0.894531" stop-color="#39B7F7"/>
<stop offset="0.898438" stop-color="#39B7F7"/>
<stop offset="0.902344" stop-color="#39B7F8"/>
<stop offset="0.90625" stop-color="#39B7F9"/>
<stop offset="0.910156" stop-color="#39B7F9"/>
<stop offset="0.914062" stop-color="#39B7FA"/>
<stop offset="0.917969" stop-color="#39B7FA"/>
<stop offset="0.921875" stop-color="#39B7FB"/>
<stop offset="0.925781" stop-color="#39B7FC"/>
<stop offset="0.929688" stop-color="#38B6FC"/>
<stop offset="0.933594" stop-color="#38B6FD"/>
<stop offset="0.9375" stop-color="#38B6FD"/>
<stop offset="0.941406" stop-color="#38B6FE"/>
<stop offset="0.945313" stop-color="#38B6FF"/>
<stop offset="0.953125" stop-color="#38B6FF"/>
<stop offset="0.96875" stop-color="#38B6FF"/>
<stop offset="0.992733" stop-color="#38B6FF"/>
<stop offset="1" stop-color="#38B6FF"/>
</linearGradient>
</defs>
</svg>
